<svg version="1.0" xmlns="http://www.w3.org/2000/svg" width="1306.667" height="1306.667" viewBox="0 0 980 980"><path d="M471 120.1c-65.9 3.1-129.6 24.1-185.5 61.2-64.2 42.6-115.9 107.4-142.4 178.7-36 97-30.5 203.4 15.3 294.8 18.6 37.1 40.1 66.8 70 96.8 61.5 61.5 137.1 97.7 223.4 107 19.5 2.1 56.9 2.1 76.4 0 52.6-5.7 102.5-21.9 147-47.7 46.5-26.9 91.5-68.9 121.4-113.4 34.8-51.7 55.3-107.7 61.9-169.2 2.2-19.6 2.2-57 0-76.6-7.7-71.5-34.7-136.9-79.9-193.7-13.2-16.5-40.8-44-57.5-57.3-43.2-34.4-90.3-57.5-143.6-70.7-33.5-8.3-69.7-11.7-106.5-9.9zm99.9 144.1c.5 1.3 2.1 6.3 3.6 11.3 5.2 17.5 12.7 29.8 26.5 43.5 13.7 13.7 18.8 17.5 30.3 23 12 5.8 22.4 8.6 36.5 10.2l10.2 1.1v47.4c0 45.7-.1 47.3-1.9 47.3-3 0-17.9-3-26.1-5.2-16-4.4-33.7-12.3-49.3-21.9-4.3-2.7-8-4.9-8.3-4.9-.2 0-.4 37.5-.4 83.2 0 66.6-.3 85.4-1.5 93.8-8.4 61.6-53.3 109.2-115.6 122.7-11.8 2.5-42.8 2.5-54.9 0-21.1-4.4-43-14.1-59-26.2-30.9-23.2-48.9-51.4-56.2-87.7-2.9-14.7-3.1-39.6-.5-53.3 4.3-21.9 12.8-41.8 25.3-59.3 8.1-11.2 25.1-27.8 35.9-35 16.4-10.9 37.3-19.6 55-22.7 9.3-1.7 33.5-2.2 41.9-1l4.6.7v79.6l-6.7-1.5c-9.1-2-24.6-1.2-33.3 1.7-19.9 6.6-36.4 23-42.5 42.2-7.5 23.8-2 48.3 14.5 64.4 12.8 12.4 24.3 18.2 40.7 20.5 17.8 2.5 37-3.7 50.6-16.1 7.4-6.9 11.3-12 15.8-21 6.2-12.5 5.9-3.2 5.9-178.1 0-87.8.3-159.9.7-160.2.3-.4 13.4-.7 29-.7H570l.9 2.2z"/></svg>