<?xml version="1.0" standalone="no"?>
<!DOCTYPE svg PUBLIC "-//W3C//DTD SVG 20010904//EN"
 "http://www.w3.org/TR/2001/REC-SVG-20010904/DTD/svg10.dtd">
<svg version="1.0" xmlns="http://www.w3.org/2000/svg"
 width="980.000000pt" height="980.000000pt" viewBox="0 0 980.000000 980.000000"
 preserveAspectRatio="xMidYMid meet">
<metadata>
Created by potrace 1.16, written by Peter Selinger 2001-2019
</metadata>
<g transform="translate(0.000000,980.000000) scale(0.100000,-0.100000)"
fill="#000000" stroke="none">
<path d="M4710 8599 c-659 -31 -1296 -241 -1855 -612 -642 -426 -1159 -1074
-1424 -1787 -360 -970 -305 -2034 153 -2948 186 -371 401 -668 700 -968 615
-615 1371 -977 2234 -1070 195 -21 569 -21 764 0 526 57 1025 219 1470 477
465 269 915 689 1214 1134 348 517 553 1077 619 1692 22 196 22 570 0 766 -77
715 -347 1369 -799 1937 -132 165 -408 440 -575 573 -432 344 -903 575 -1436
707 -335 83 -697 117 -1065 99z m999 -1441 c5 -13 21 -63 36 -113 52 -175 127
-298 265 -435 137 -137 188 -175 303 -230 120 -58 224 -86 365 -102 l102 -11
0 -474 c0 -457 -1 -473 -19 -473 -30 0 -179 30 -261 52 -160 44 -337 123 -493
219 -43 27 -80 49 -83 49 -2 0 -4 -375 -4 -832 0 -666 -3 -854 -15 -938 -84
-616 -533 -1092 -1156 -1227 -118 -25 -428 -25 -549 0 -211 44 -430 141 -590
262 -309 232 -489 514 -562 877 -29 147 -31 396 -5 533 43 219 128 418 253
593 81 112 251 278 359 350 164 109 373 196 550 227 93 17 335 22 419 10 l46
-7 0 -398 0 -398 -67 15 c-91 20 -246 12 -333 -17 -199 -66 -364 -230 -425
-422 -75 -238 -20 -483 145 -644 128 -124 243 -182 407 -205 178 -25 370 37
506 161 74 69 113 120 158 210 62 125 59 32 59 1781 0 878 3 1599 7 1602 3 4
134 7 290 7 l283 0 9 -22z"/>
</g>
</svg>
